<mxfile host="Electron" agent="Mozilla/5.0 (Windows NT 10.0; Win64; x64) AppleWebKit/537.36 (KHTML, like Gecko) draw.io/27.0.9 Chrome/134.0.6998.205 Electron/35.4.0 Safari/537.36" version="27.0.9" pages="3">
  <diagram id="raFO92xcuNmxu2Nsc_oR" name="Page-2">
    <mxGraphModel dx="1281" dy="660" grid="1" gridSize="10" guides="1" tooltips="1" connect="1" arrows="1" fold="1" page="1" pageScale="1" pageWidth="1169" pageHeight="1654" math="0" shadow="0">
      <root>
        <mxCell id="0" />
        <mxCell id="1" parent="0" />
        <mxCell id="LVHPAB0PmUDkhZIPpSyh-1" value="USER" style="shape=umlActor;verticalLabelPosition=bottom;verticalAlign=top;html=1;outlineConnect=0;" parent="1" vertex="1">
          <mxGeometry x="50" y="200" width="70" height="160" as="geometry" />
        </mxCell>
        <mxCell id="LVHPAB0PmUDkhZIPpSyh-3" value="CREATE NOTE" style="ellipse;whiteSpace=wrap;html=1;" parent="1" vertex="1">
          <mxGeometry x="320" y="80" width="120" height="80" as="geometry" />
        </mxCell>
        <mxCell id="LVHPAB0PmUDkhZIPpSyh-4" value="DELETE NOTE" style="ellipse;whiteSpace=wrap;html=1;" parent="1" vertex="1">
          <mxGeometry x="320" y="200" width="120" height="80" as="geometry" />
        </mxCell>
        <mxCell id="LVHPAB0PmUDkhZIPpSyh-5" value="EDIT NOTE" style="ellipse;whiteSpace=wrap;html=1;" parent="1" vertex="1">
          <mxGeometry x="320" y="320" width="120" height="80" as="geometry" />
        </mxCell>
        <mxCell id="LVHPAB0PmUDkhZIPpSyh-7" value="VIEW NOTE" style="ellipse;whiteSpace=wrap;html=1;" parent="1" vertex="1">
          <mxGeometry x="320" y="440" width="120" height="80" as="geometry" />
        </mxCell>
        <mxCell id="LVHPAB0PmUDkhZIPpSyh-9" value="" style="endArrow=classic;startArrow=classic;html=1;rounded=0;exitX=0;exitY=0.5;exitDx=0;exitDy=0;entryX=0.01;entryY=0.69;entryDx=0;entryDy=0;entryPerimeter=0;" parent="1" source="LVHPAB0PmUDkhZIPpSyh-7" target="LVHPAB0PmUDkhZIPpSyh-3" edge="1">
          <mxGeometry width="50" height="50" relative="1" as="geometry">
            <mxPoint x="510" y="370" as="sourcePoint" />
            <mxPoint x="310" y="140" as="targetPoint" />
            <Array as="points">
              <mxPoint x="120" y="300" />
            </Array>
          </mxGeometry>
        </mxCell>
        <mxCell id="LVHPAB0PmUDkhZIPpSyh-11" value="" style="endArrow=classic;html=1;rounded=0;" parent="1" target="LVHPAB0PmUDkhZIPpSyh-5" edge="1">
          <mxGeometry width="50" height="50" relative="1" as="geometry">
            <mxPoint x="120" y="300" as="sourcePoint" />
            <mxPoint x="560" y="320" as="targetPoint" />
          </mxGeometry>
        </mxCell>
        <mxCell id="QJ9SsHnoyhmBS0RCvWxR-1" value="&lt;h1 style=&quot;margin-top: 0px;&quot;&gt;USE CASE DIAGRAM&lt;/h1&gt;" style="text;html=1;whiteSpace=wrap;overflow=hidden;rounded=0;" vertex="1" parent="1">
          <mxGeometry x="40" y="10" width="280" height="50" as="geometry" />
        </mxCell>
      </root>
    </mxGraphModel>
  </diagram>
  <diagram name="Page-1" id="VmQoldXXSBAHX9XJW6Q5">
    <mxGraphModel dx="1281" dy="660" grid="1" gridSize="10" guides="1" tooltips="1" connect="1" arrows="1" fold="1" page="1" pageScale="1" pageWidth="1169" pageHeight="1654" math="0" shadow="0">
      <root>
        <mxCell id="0" />
        <mxCell id="1" parent="0" />
        <mxCell id="1X_xeGOgwTtWNxBEtXGm-1" value="USER" style="shape=umlActor;verticalLabelPosition=bottom;verticalAlign=top;html=1;outlineConnect=0;" parent="1" vertex="1">
          <mxGeometry x="40" y="80" width="50" height="120" as="geometry" />
        </mxCell>
        <mxCell id="1X_xeGOgwTtWNxBEtXGm-5" value="DJANGO VIEW" style="swimlane;whiteSpace=wrap;html=1;" parent="1" vertex="1">
          <mxGeometry x="200" y="320" width="160" height="440" as="geometry" />
        </mxCell>
        <mxCell id="kE8BqRmIMixkfcPANPPr-3" value="" style="endArrow=classic;html=1;rounded=0;dashed=1;" parent="1X_xeGOgwTtWNxBEtXGm-5" edge="1">
          <mxGeometry relative="1" as="geometry">
            <mxPoint y="160" as="sourcePoint" />
            <mxPoint x="240" y="160" as="targetPoint" />
          </mxGeometry>
        </mxCell>
        <mxCell id="kE8BqRmIMixkfcPANPPr-4" value="POST(create_note)" style="edgeLabel;resizable=0;html=1;;align=center;verticalAlign=middle;" parent="kE8BqRmIMixkfcPANPPr-3" connectable="0" vertex="1">
          <mxGeometry relative="1" as="geometry" />
        </mxCell>
        <mxCell id="1X_xeGOgwTtWNxBEtXGm-6" value="MODEL" style="swimlane;whiteSpace=wrap;html=1;" parent="1" vertex="1">
          <mxGeometry x="440" y="320" width="160" height="440" as="geometry" />
        </mxCell>
        <mxCell id="1X_xeGOgwTtWNxBEtXGm-17" value="" style="endArrow=classic;html=1;rounded=0;exitX=1;exitY=0.5;exitDx=0;exitDy=0;dashed=1;" parent="1X_xeGOgwTtWNxBEtXGm-6" edge="1">
          <mxGeometry relative="1" as="geometry">
            <mxPoint x="160" y="400.5" as="sourcePoint" />
            <mxPoint x="-70" y="400" as="targetPoint" />
          </mxGeometry>
        </mxCell>
        <mxCell id="1X_xeGOgwTtWNxBEtXGm-18" value="Return success message" style="edgeLabel;resizable=0;html=1;;align=center;verticalAlign=middle;" parent="1X_xeGOgwTtWNxBEtXGm-17" connectable="0" vertex="1">
          <mxGeometry relative="1" as="geometry" />
        </mxCell>
        <mxCell id="1X_xeGOgwTtWNxBEtXGm-15" value="" style="endArrow=classic;html=1;rounded=0;dashed=1;" parent="1X_xeGOgwTtWNxBEtXGm-6" edge="1">
          <mxGeometry relative="1" as="geometry">
            <mxPoint y="240" as="sourcePoint" />
            <mxPoint x="240" y="240" as="targetPoint" />
          </mxGeometry>
        </mxCell>
        <mxCell id="1X_xeGOgwTtWNxBEtXGm-16" value="Saves Note(title &amp;amp; content)" style="edgeLabel;resizable=0;html=1;;align=center;verticalAlign=middle;" parent="1X_xeGOgwTtWNxBEtXGm-15" connectable="0" vertex="1">
          <mxGeometry relative="1" as="geometry" />
        </mxCell>
        <mxCell id="1X_xeGOgwTtWNxBEtXGm-7" value="TEMPLETE" style="swimlane;whiteSpace=wrap;html=1;" parent="1" vertex="1">
          <mxGeometry x="680" y="320" width="160" height="440" as="geometry" />
        </mxCell>
        <mxCell id="1X_xeGOgwTtWNxBEtXGm-9" value="" style="endArrow=classic;html=1;rounded=0;dashed=1;" parent="1" edge="1">
          <mxGeometry relative="1" as="geometry">
            <mxPoint x="80" y="140" as="sourcePoint" />
            <mxPoint x="200" y="400" as="targetPoint" />
            <Array as="points">
              <mxPoint x="80" y="140" />
              <mxPoint x="100" y="140" />
              <mxPoint x="100" y="400" />
            </Array>
          </mxGeometry>
        </mxCell>
        <mxCell id="1X_xeGOgwTtWNxBEtXGm-10" value="ENTERS NOTE CONTENT" style="edgeLabel;resizable=0;html=1;;align=center;verticalAlign=middle;" parent="1X_xeGOgwTtWNxBEtXGm-9" connectable="0" vertex="1">
          <mxGeometry relative="1" as="geometry" />
        </mxCell>
        <mxCell id="1X_xeGOgwTtWNxBEtXGm-30" value="" style="endArrow=classic;html=1;rounded=0;dashed=1;" parent="1" edge="1">
          <mxGeometry relative="1" as="geometry">
            <mxPoint x="840" y="640" as="sourcePoint" />
            <mxPoint x="600" y="640" as="targetPoint" />
          </mxGeometry>
        </mxCell>
        <mxCell id="1X_xeGOgwTtWNxBEtXGm-31" value="Shows all the notes, including the new note" style="edgeLabel;resizable=0;html=1;;align=center;verticalAlign=middle;" parent="1X_xeGOgwTtWNxBEtXGm-30" connectable="0" vertex="1">
          <mxGeometry relative="1" as="geometry" />
        </mxCell>
        <mxCell id="HIlZHOl1BZQbP_TUEXRr-1" value="&lt;h1 style=&quot;margin-top: 0px;&quot;&gt;SEQUENCE DIAGRAM&lt;/h1&gt;" style="text;html=1;whiteSpace=wrap;overflow=hidden;rounded=0;" vertex="1" parent="1">
          <mxGeometry x="40" y="10" width="280" height="40" as="geometry" />
        </mxCell>
      </root>
    </mxGraphModel>
  </diagram>
  <diagram id="fFBHLjvs8FX81iM2ZjyH" name="Page-3">
    <mxGraphModel dx="1281" dy="660" grid="1" gridSize="10" guides="1" tooltips="1" connect="1" arrows="1" fold="1" page="1" pageScale="1" pageWidth="1169" pageHeight="1654" math="0" shadow="0">
      <root>
        <mxCell id="0" />
        <mxCell id="1" parent="0" />
        <mxCell id="WnpOZFKodz6Wq1kL0EP8-1" value="NOTE" style="swimlane;fontStyle=0;childLayout=stackLayout;horizontal=1;startSize=30;horizontalStack=0;resizeParent=1;resizeParentMax=0;resizeLast=0;collapsible=1;marginBottom=0;whiteSpace=wrap;html=1;" parent="1" vertex="1">
          <mxGeometry x="120" y="120" width="200" height="210" as="geometry" />
        </mxCell>
        <mxCell id="WnpOZFKodz6Wq1kL0EP8-2" value="-id: int" style="text;strokeColor=none;fillColor=none;align=left;verticalAlign=middle;spacingLeft=4;spacingRight=4;overflow=hidden;points=[[0,0.5],[1,0.5]];portConstraint=eastwest;rotatable=0;whiteSpace=wrap;html=1;" parent="WnpOZFKodz6Wq1kL0EP8-1" vertex="1">
          <mxGeometry y="30" width="200" height="30" as="geometry" />
        </mxCell>
        <mxCell id="WnpOZFKodz6Wq1kL0EP8-3" value="-title: str" style="text;strokeColor=none;fillColor=none;align=left;verticalAlign=middle;spacingLeft=4;spacingRight=4;overflow=hidden;points=[[0,0.5],[1,0.5]];portConstraint=eastwest;rotatable=0;whiteSpace=wrap;html=1;" parent="WnpOZFKodz6Wq1kL0EP8-1" vertex="1">
          <mxGeometry y="60" width="200" height="30" as="geometry" />
        </mxCell>
        <mxCell id="WnpOZFKodz6Wq1kL0EP8-4" value="-content: text" style="text;strokeColor=none;fillColor=none;align=left;verticalAlign=middle;spacingLeft=4;spacingRight=4;overflow=hidden;points=[[0,0.5],[1,0.5]];portConstraint=eastwest;rotatable=0;whiteSpace=wrap;html=1;" parent="WnpOZFKodz6Wq1kL0EP8-1" vertex="1">
          <mxGeometry y="90" width="200" height="30" as="geometry" />
        </mxCell>
        <mxCell id="WnpOZFKodz6Wq1kL0EP8-7" value="-created_at: datetime" style="text;strokeColor=none;fillColor=none;align=left;verticalAlign=middle;spacingLeft=4;spacingRight=4;overflow=hidden;points=[[0,0.5],[1,0.5]];portConstraint=eastwest;rotatable=0;whiteSpace=wrap;html=1;" parent="WnpOZFKodz6Wq1kL0EP8-1" vertex="1">
          <mxGeometry y="120" width="200" height="30" as="geometry" />
        </mxCell>
        <mxCell id="WnpOZFKodz6Wq1kL0EP8-6" value="-updated_at: datetime" style="text;strokeColor=none;fillColor=none;align=left;verticalAlign=middle;spacingLeft=4;spacingRight=4;overflow=hidden;points=[[0,0.5],[1,0.5]];portConstraint=eastwest;rotatable=0;whiteSpace=wrap;html=1;" parent="WnpOZFKodz6Wq1kL0EP8-1" vertex="1">
          <mxGeometry y="150" width="200" height="30" as="geometry" />
        </mxCell>
        <mxCell id="WnpOZFKodz6Wq1kL0EP8-5" value="+_str_()" style="text;strokeColor=default;fillColor=none;align=left;verticalAlign=middle;spacingLeft=4;spacingRight=4;overflow=hidden;points=[[0,0.5],[1,0.5]];portConstraint=eastwest;rotatable=0;whiteSpace=wrap;html=1;perimeterSpacing=1;" parent="WnpOZFKodz6Wq1kL0EP8-1" vertex="1">
          <mxGeometry y="180" width="200" height="30" as="geometry" />
        </mxCell>
        <mxCell id="gOkTkLCZ1jEmgkW_h78F-1" value="&lt;h1 style=&quot;margin-top: 0px;&quot;&gt;CLASS DIAGRAM&lt;/h1&gt;" style="text;html=1;whiteSpace=wrap;overflow=hidden;rounded=0;" vertex="1" parent="1">
          <mxGeometry x="40" y="40" width="240" height="50" as="geometry" />
        </mxCell>
      </root>
    </mxGraphModel>
  </diagram>
</mxfile>
